# xmcd
#
# Track frame offsets:
#   150
#   11790
#   25311
#   38979
#   55958
#   71996
#   88054
#   106841
#   122757
#   136338
#   150576
#   163420
#   177007
#   194565
#   205952
#   226934
#   239713
#   250973
#   263508
#   278239
#
# Disc length: 4261 seconds
#
# Revision: 0
# Processed by: cddbd v1.5.1PL2 Copyright (c) Steve Scherf et al.
# Submitted via: GXTranscoder 2.0.1939
#
DISCID=2610a314
DTITLE=Los hermanos Bustos - Rancheras y corrido
DYEAR=1900
DGENRE=Latin
TTITLE0=Mil recuerdos
TTITLE1=Destape otra botella
TTITLE2=Me bebi tu recuerdo
TTITLE3=Una aventura
TTITLE4=Nadie es eterno
TTITLE5=Hombres de talento
TTITLE6=A orilla del mar
TTITLE7=Me pongo a llorar
TTITLE8=La pobre loca
TTITLE9=Borracho hasta los pies
TTITLE10=Vaya sorpresa
TTITLE11=Ladrillo
TTITLE12=El ultimo adios
TTITLE13=Botella envenenada
TTITLE14=Gracias abuelito
TTITLE15=Este fue mi adios
TTITLE16=Noble engaño
TTITLE17=La vieja del la`o
TTITLE18=Hasta la miel amarga
TTITLE19=Medley de corridos
EXTD=
EXTT0=
EXTT1=
EXTT2=
EXTT3=
EXTT4=
EXTT5=
EXTT6=
EXTT7=
EXTT8=
EXTT9=
EXTT10=
EXTT11=
EXTT12=
EXTT13=
EXTT14=
EXTT15=
EXTT16=
EXTT17=
EXTT18=
EXTT19=
PLAYORDER=
